<svg xmlns="http://www.w3.org/2000/svg" xmlns:xlink="http://www.w3.org/1999/xlink" width="320" zoomAndPan="magnify" viewBox="0 0 240 98.999996" height="132" preserveAspectRatio="xMidYMid meet" version="1.0"><defs><g/><clipPath id="b80bb39ec1"><path d="M 3.292969 41.476562 L 236.542969 41.476562 L 236.542969 54.976562 L 3.292969 54.976562 Z M 3.292969 41.476562 " clip-rule="nonzero"/></clipPath></defs><g fill="#4f46e5" fill-opacity="1"><g transform="translate(14.30123, 82.25514)"><g><path d="M 7.6875 -67.3125 L 16.34375 -67.3125 L 16.34375 -37.984375 L 52.40625 -37.984375 L 52.40625 -67.3125 L 61.0625 -67.3125 L 61.0625 0 L 52.40625 0 L 52.40625 -29.8125 L 16.34375 -29.8125 L 16.34375 0 L 7.6875 0 Z M 7.6875 -67.3125 "/></g></g></g><g fill="#4f46e5" fill-opacity="1"><g transform="translate(78.922795, 82.25514)"><g><path d="M 39.4375 1.921875 C 34.363281 1.921875 29.679688 1.039062 25.390625 -0.71875 C 21.097656 -2.476562 17.394531 -4.945312 14.28125 -8.125 C 11.164062 -11.300781 8.726562 -15.050781 6.96875 -19.375 C 5.207031 -23.707031 4.328125 -28.46875 4.328125 -33.65625 C 4.328125 -38.851562 5.207031 -43.613281 6.96875 -47.9375 C 8.726562 -52.269531 11.164062 -56.019531 14.28125 -59.1875 C 17.394531 -62.363281 21.097656 -64.832031 25.390625 -66.59375 C 29.679688 -68.363281 34.363281 -69.25 39.4375 -69.25 C 42.832031 -69.25 45.90625 -68.894531 48.65625 -68.1875 C 51.414062 -67.476562 53.898438 -66.546875 56.109375 -65.390625 C 58.328125 -64.242188 60.269531 -62.929688 61.9375 -61.453125 C 63.601562 -59.972656 65.046875 -58.46875 66.265625 -56.9375 C 69.148438 -53.34375 71.265625 -49.269531 72.609375 -44.71875 L 63.953125 -44.71875 C 62.734375 -47.726562 61.035156 -50.453125 58.859375 -52.890625 C 57.898438 -53.921875 56.8125 -54.914062 55.59375 -55.875 C 54.375 -56.832031 52.960938 -57.695312 51.359375 -58.46875 C 49.753906 -59.238281 47.957031 -59.863281 45.96875 -60.34375 C 43.976562 -60.820312 41.800781 -61.0625 39.4375 -61.0625 C 35.582031 -61.0625 32.035156 -60.40625 28.796875 -59.09375 C 25.566406 -57.78125 22.78125 -55.921875 20.4375 -53.515625 C 18.09375 -51.109375 16.265625 -48.222656 14.953125 -44.859375 C 13.640625 -41.492188 12.984375 -37.757812 12.984375 -33.65625 C 12.984375 -29.550781 13.640625 -25.816406 14.953125 -22.453125 C 16.265625 -19.085938 18.09375 -16.203125 20.4375 -13.796875 C 22.78125 -11.390625 25.566406 -9.53125 28.796875 -8.21875 C 32.035156 -6.90625 35.582031 -6.25 39.4375 -6.25 C 41.863281 -6.25 44.101562 -6.503906 46.15625 -7.015625 C 48.207031 -7.535156 50.050781 -8.210938 51.6875 -9.046875 C 53.320312 -9.878906 54.765625 -10.820312 56.015625 -11.875 C 57.265625 -12.9375 58.375 -14.007812 59.34375 -15.09375 C 61.519531 -17.664062 63.21875 -20.648438 64.4375 -24.046875 L 73.09375 -24.046875 C 71.550781 -19.171875 69.304688 -14.84375 66.359375 -11.0625 C 65.078125 -9.394531 63.585938 -7.789062 61.890625 -6.25 C 60.191406 -4.707031 58.234375 -3.328125 56.015625 -2.109375 C 53.804688 -0.890625 51.320312 0.0820312 48.5625 0.8125 C 45.8125 1.550781 42.769531 1.921875 39.4375 1.921875 Z M 39.4375 1.921875 "/></g></g></g><g fill="#4f46e5" fill-opacity="1"><g transform="translate(151.718302, 82.25514)"><g><path d="M 39.4375 1.921875 C 34.363281 1.921875 29.679688 1.039062 25.390625 -0.71875 C 21.097656 -2.476562 17.394531 -4.945312 14.28125 -8.125 C 11.164062 -11.300781 8.726562 -15.050781 6.96875 -19.375 C 5.207031 -23.707031 4.328125 -28.46875 4.328125 -33.65625 C 4.328125 -38.851562 5.207031 -43.613281 6.96875 -47.9375 C 8.726562 -52.269531 11.164062 -56.019531 14.28125 -59.1875 C 17.394531 -62.363281 21.097656 -64.832031 25.390625 -66.59375 C 29.679688 -68.363281 34.363281 -69.25 39.4375 -69.25 C 42.832031 -69.25 45.90625 -68.894531 48.65625 -68.1875 C 51.414062 -67.476562 53.898438 -66.546875 56.109375 -65.390625 C 58.328125 -64.242188 60.269531 -62.929688 61.9375 -61.453125 C 63.601562 -59.972656 65.046875 -58.46875 66.265625 -56.9375 C 69.148438 -53.34375 71.265625 -49.269531 72.609375 -44.71875 L 63.953125 -44.71875 C 62.734375 -47.726562 61.035156 -50.453125 58.859375 -52.890625 C 57.898438 -53.921875 56.8125 -54.914062 55.59375 -55.875 C 54.375 -56.832031 52.960938 -57.695312 51.359375 -58.46875 C 49.753906 -59.238281 47.957031 -59.863281 45.96875 -60.34375 C 43.976562 -60.820312 41.800781 -61.0625 39.4375 -61.0625 C 35.582031 -61.0625 32.035156 -60.40625 28.796875 -59.09375 C 25.566406 -57.78125 22.78125 -55.921875 20.4375 -53.515625 C 18.09375 -51.109375 16.265625 -48.222656 14.953125 -44.859375 C 13.640625 -41.492188 12.984375 -37.757812 12.984375 -33.65625 C 12.984375 -29.550781 13.640625 -25.816406 14.953125 -22.453125 C 16.265625 -19.085938 18.09375 -16.203125 20.4375 -13.796875 C 22.78125 -11.390625 25.566406 -9.53125 28.796875 -8.21875 C 32.035156 -6.90625 35.582031 -6.25 39.4375 -6.25 C 41.863281 -6.25 44.101562 -6.503906 46.15625 -7.015625 C 48.207031 -7.535156 50.050781 -8.210938 51.6875 -9.046875 C 53.320312 -9.878906 54.765625 -10.820312 56.015625 -11.875 C 57.265625 -12.9375 58.375 -14.007812 59.34375 -15.09375 C 61.519531 -17.664062 63.21875 -20.648438 64.4375 -24.046875 L 73.09375 -24.046875 C 71.550781 -19.171875 69.304688 -14.84375 66.359375 -11.0625 C 65.078125 -9.394531 63.585938 -7.789062 61.890625 -6.25 C 60.191406 -4.707031 58.234375 -3.328125 56.015625 -2.109375 C 53.804688 -0.890625 51.320312 0.0820312 48.5625 0.8125 C 45.8125 1.550781 42.769531 1.921875 39.4375 1.921875 Z M 39.4375 1.921875 "/></g></g></g><g clip-path="url(#b80bb39ec1)"><path fill="#4f46e5" d="M 3.316406 41.476562 L 236.515625 41.476562 L 236.515625 54.976562 L 3.316406 54.976562 L 3.316406 41.476562 " fill-opacity="1" fill-rule="nonzero"/></g></svg>