<svg xmlns="http://www.w3.org/2000/svg" xmlns:xlink="http://www.w3.org/1999/xlink" width="320" zoomAndPan="magnify" viewBox="0 0 240 98.999996" height="132" preserveAspectRatio="xMidYMid meet" version="1.0"><defs><g/><clipPath id="06ceec3c5d"><path d="M 3.292969 39.808594 L 236.542969 39.808594 L 236.542969 57.808594 L 3.292969 57.808594 Z M 3.292969 39.808594 " clip-rule="nonzero"/></clipPath></defs><g fill="#ffffff" fill-opacity="1"><g transform="translate(20.929987, 87.728028)"><g><path d="M 65.078125 -37.796875 L 15.8125 -37.796875 L 15.8125 0 L 11.671875 0 L 11.671875 -76.765625 L 15.8125 -76.765625 L 15.8125 -42.15625 L 65.078125 -42.15625 L 65.078125 -76.765625 L 69.21875 -76.765625 L 69.21875 0 L 65.078125 0 Z M 65.078125 -37.796875 "/></g></g></g><g fill="#ffffff" fill-opacity="1"><g transform="translate(97.266346, 87.728028)"><g><path d="M 36.84375 -77.828125 C 41.90625 -77.828125 46.363281 -76.738281 50.21875 -74.5625 C 54.070312 -72.382812 57.15625 -69.539062 59.46875 -66.03125 C 61.789062 -62.53125 63.164062 -58.816406 63.59375 -54.890625 L 58.921875 -54.890625 C 58.253906 -58.210938 56.988281 -61.28125 55.125 -64.09375 C 53.269531 -66.914062 50.820312 -69.179688 47.78125 -70.890625 C 44.738281 -72.609375 41.09375 -73.46875 36.84375 -73.46875 C 31.101562 -73.46875 26.320312 -72.164062 22.5 -69.5625 C 18.6875 -66.96875 15.820312 -63.054688 13.90625 -57.828125 C 12 -52.609375 11.046875 -46.070312 11.046875 -38.21875 C 11.046875 -26.4375 13.1875 -17.671875 17.46875 -11.921875 C 21.75 -6.171875 28.207031 -3.296875 36.84375 -3.296875 C 41.09375 -3.296875 44.738281 -4.144531 47.78125 -5.84375 C 50.820312 -7.539062 53.269531 -9.796875 55.125 -12.609375 C 56.988281 -15.421875 58.253906 -18.488281 58.921875 -21.8125 L 63.59375 -21.8125 C 63.28125 -18.914062 62.414062 -16.09375 61 -13.34375 C 59.582031 -10.601562 57.710938 -8.15625 55.390625 -6 C 53.078125 -3.84375 50.351562 -2.125 47.21875 -0.84375 C 44.082031 0.425781 40.625 1.0625 36.84375 1.0625 C 30.226562 1.0625 24.65625 -0.410156 20.125 -3.359375 C 15.59375 -6.316406 12.164062 -10.707031 9.84375 -16.53125 C 7.53125 -22.351562 6.375 -29.582031 6.375 -38.21875 C 6.375 -46.851562 7.53125 -54.109375 9.84375 -59.984375 C 12.164062 -65.859375 15.59375 -70.300781 20.125 -73.3125 C 24.65625 -76.320312 30.226562 -77.828125 36.84375 -77.828125 Z M 36.84375 -77.828125 "/></g></g></g><g fill="#ffffff" fill-opacity="1"><g transform="translate(162.667138, 87.728028)"><g><path d="M 36.84375 -77.828125 C 41.90625 -77.828125 46.363281 -76.738281 50.21875 -74.5625 C 54.070312 -72.382812 57.15625 -69.539062 59.46875 -66.03125 C 61.789062 -62.53125 63.164062 -58.816406 63.59375 -54.890625 L 58.921875 -54.890625 C 58.253906 -58.210938 56.988281 -61.28125 55.125 -64.09375 C 53.269531 -66.914062 50.820312 -69.179688 47.78125 -70.890625 C 44.738281 -72.609375 41.09375 -73.46875 36.84375 -73.46875 C 31.101562 -73.46875 26.320312 -72.164062 22.5 -69.5625 C 18.6875 -66.96875 15.820312 -63.054688 13.90625 -57.828125 C 12 -52.609375 11.046875 -46.070312 11.046875 -38.21875 C 11.046875 -26.4375 13.1875 -17.671875 17.46875 -11.921875 C 21.75 -6.171875 28.207031 -3.296875 36.84375 -3.296875 C 41.09375 -3.296875 44.738281 -4.144531 47.78125 -5.84375 C 50.820312 -7.539062 53.269531 -9.796875 55.125 -12.609375 C 56.988281 -15.421875 58.253906 -18.488281 58.921875 -21.8125 L 63.59375 -21.8125 C 63.28125 -18.914062 62.414062 -16.09375 61 -13.34375 C 59.582031 -10.601562 57.710938 -8.15625 55.390625 -6 C 53.078125 -3.84375 50.351562 -2.125 47.21875 -0.84375 C 44.082031 0.425781 40.625 1.0625 36.84375 1.0625 C 30.226562 1.0625 24.65625 -0.410156 20.125 -3.359375 C 15.59375 -6.316406 12.164062 -10.707031 9.84375 -16.53125 C 7.53125 -22.351562 6.375 -29.582031 6.375 -38.21875 C 6.375 -46.851562 7.53125 -54.109375 9.84375 -59.984375 C 12.164062 -65.859375 15.59375 -70.300781 20.125 -73.3125 C 24.65625 -76.320312 30.226562 -77.828125 36.84375 -77.828125 Z M 36.84375 -77.828125 "/></g></g></g><g clip-path="url(#06ceec3c5d)"><path fill="#ffffff" d="M 3.363281 39.808594 L 236.46875 39.808594 L 236.46875 57.808594 L 3.363281 57.808594 L 3.363281 39.808594 " fill-opacity="1" fill-rule="nonzero"/></g><g fill="#000000" fill-opacity="1"><g transform="translate(40.946028, 52.839893)"><g><path d="M 0.203125 -5.640625 L 0.203125 -6.390625 L 5.046875 -6.390625 L 5.046875 -5.640625 L 3.09375 -5.640625 L 3.09375 0 L 2.265625 0 L 2.265625 -5.640625 Z M 0.203125 -5.640625 "/></g></g></g><g fill="#000000" fill-opacity="1"><g transform="translate(47.518081, 52.839893)"><g><path d="M 5.109375 -2.953125 L 1.65625 -2.953125 L 1.65625 0 L 0.84375 0 L 0.84375 -6.390625 L 1.65625 -6.390625 L 1.65625 -3.671875 L 5.109375 -3.671875 L 5.109375 -6.390625 L 5.9375 -6.390625 L 5.9375 0 L 5.109375 0 Z M 5.109375 -2.953125 "/></g></g></g><g fill="#000000" fill-opacity="1"><g transform="translate(55.614571, 52.839893)"><g><path d="M 0.84375 0 L 0.84375 -6.390625 L 4.875 -6.390625 L 4.875 -5.671875 L 1.671875 -5.671875 L 1.671875 -3.59375 L 4.546875 -3.59375 L 4.546875 -2.875 L 1.65625 -2.875 L 1.65625 -0.734375 L 4.96875 -0.734375 L 4.96875 0 Z M 0.84375 0 "/></g></g></g><g fill="#000000" fill-opacity="1"><g transform="translate(62.425229, 52.839893)"><g/></g></g><g fill="#000000" fill-opacity="1"><g transform="translate(65.789331, 52.839893)"><g><path d="M 5.109375 -2.953125 L 1.65625 -2.953125 L 1.65625 0 L 0.84375 0 L 0.84375 -6.390625 L 1.65625 -6.390625 L 1.65625 -3.671875 L 5.109375 -3.671875 L 5.109375 -6.390625 L 5.9375 -6.390625 L 5.9375 0 L 5.109375 0 Z M 5.109375 -2.953125 "/></g></g></g><g fill="#000000" fill-opacity="1"><g transform="translate(73.885821, 52.839893)"><g><path d="M 3.25 0.09375 C 2.6875 0.09375 2.195312 -0.0351562 1.78125 -0.296875 C 1.363281 -0.554688 1.039062 -0.925781 0.8125 -1.40625 C 0.59375 -1.894531 0.484375 -2.488281 0.484375 -3.1875 C 0.484375 -3.882812 0.59375 -4.476562 0.8125 -4.96875 C 1.039062 -5.457031 1.363281 -5.832031 1.78125 -6.09375 C 2.195312 -6.351562 2.6875 -6.484375 3.25 -6.484375 C 3.820312 -6.484375 4.3125 -6.351562 4.71875 -6.09375 C 5.132812 -5.832031 5.453125 -5.457031 5.671875 -4.96875 C 5.898438 -4.476562 6.015625 -3.882812 6.015625 -3.1875 C 6.015625 -2.488281 5.898438 -1.894531 5.671875 -1.40625 C 5.453125 -0.925781 5.132812 -0.554688 4.71875 -0.296875 C 4.3125 -0.0351562 3.820312 0.09375 3.25 0.09375 Z M 3.25 -0.625 C 3.644531 -0.625 3.976562 -0.710938 4.25 -0.890625 C 4.53125 -1.066406 4.742188 -1.34375 4.890625 -1.71875 C 5.035156 -2.101562 5.109375 -2.585938 5.109375 -3.171875 C 5.109375 -3.765625 5.035156 -4.253906 4.890625 -4.640625 C 4.742188 -5.023438 4.53125 -5.304688 4.25 -5.484375 C 3.976562 -5.671875 3.644531 -5.765625 3.25 -5.765625 C 2.863281 -5.765625 2.53125 -5.671875 2.25 -5.484375 C 1.96875 -5.304688 1.75 -5.023438 1.59375 -4.640625 C 1.445312 -4.253906 1.375 -3.765625 1.375 -3.171875 C 1.375 -2.585938 1.445312 -2.101562 1.59375 -1.71875 C 1.75 -1.34375 1.96875 -1.066406 2.25 -0.890625 C 2.53125 -0.710938 2.863281 -0.625 3.25 -0.625 Z M 3.25 -0.625 "/></g></g></g><g fill="#000000" fill-opacity="1"><g transform="translate(81.699516, 52.839893)"><g><path d="M 5 -6.390625 L 5.828125 -6.390625 L 5.828125 0 L 5.09375 0 L 1.65625 -5.046875 L 1.65625 0 L 0.84375 0 L 0.84375 -6.390625 L 1.625 -6.390625 L 5 -1.421875 Z M 5 -6.390625 "/></g></g></g><g fill="#000000" fill-opacity="1"><g transform="translate(89.689955, 52.839893)"><g><path d="M 0.84375 0 L 0.84375 -6.390625 L 4.875 -6.390625 L 4.875 -5.671875 L 1.671875 -5.671875 L 1.671875 -3.59375 L 4.546875 -3.59375 L 4.546875 -2.875 L 1.65625 -2.875 L 1.65625 -0.734375 L 4.96875 -0.734375 L 4.96875 0 Z M 0.84375 0 "/></g></g></g><g fill="#000000" fill-opacity="1"><g transform="translate(96.500611, 52.839893)"><g><path d="M 3.015625 0.09375 C 2.710938 0.09375 2.421875 0.0546875 2.140625 -0.015625 C 1.859375 -0.0976562 1.601562 -0.210938 1.375 -0.359375 C 1.144531 -0.515625 0.953125 -0.703125 0.796875 -0.921875 C 0.648438 -1.140625 0.554688 -1.398438 0.515625 -1.703125 L 1.375 -1.703125 C 1.425781 -1.453125 1.53125 -1.242188 1.6875 -1.078125 C 1.84375 -0.921875 2.035156 -0.800781 2.265625 -0.71875 C 2.492188 -0.632812 2.742188 -0.59375 3.015625 -0.59375 C 3.316406 -0.59375 3.582031 -0.632812 3.8125 -0.71875 C 4.050781 -0.800781 4.238281 -0.921875 4.375 -1.078125 C 4.507812 -1.234375 4.578125 -1.421875 4.578125 -1.640625 C 4.578125 -1.828125 4.535156 -1.992188 4.453125 -2.140625 C 4.367188 -2.285156 4.242188 -2.40625 4.078125 -2.5 C 3.910156 -2.59375 3.707031 -2.664062 3.46875 -2.71875 L 2.21875 -3 C 1.75 -3.101562 1.378906 -3.285156 1.109375 -3.546875 C 0.847656 -3.816406 0.710938 -4.171875 0.703125 -4.609375 C 0.703125 -4.984375 0.800781 -5.304688 1 -5.578125 C 1.195312 -5.859375 1.46875 -6.078125 1.8125 -6.234375 C 2.15625 -6.390625 2.546875 -6.46875 2.984375 -6.46875 C 3.492188 -6.46875 3.921875 -6.378906 4.265625 -6.203125 C 4.617188 -6.035156 4.882812 -5.8125 5.0625 -5.53125 C 5.238281 -5.25 5.328125 -4.945312 5.328125 -4.625 L 4.484375 -4.625 C 4.453125 -4.90625 4.363281 -5.128906 4.21875 -5.296875 C 4.082031 -5.472656 3.90625 -5.597656 3.6875 -5.671875 C 3.476562 -5.742188 3.242188 -5.78125 2.984375 -5.78125 C 2.804688 -5.78125 2.628906 -5.753906 2.453125 -5.703125 C 2.285156 -5.660156 2.132812 -5.59375 2 -5.5 C 1.863281 -5.414062 1.753906 -5.304688 1.671875 -5.171875 C 1.597656 -5.035156 1.5625 -4.875 1.5625 -4.6875 C 1.5625 -4.457031 1.640625 -4.269531 1.796875 -4.125 C 1.953125 -3.976562 2.238281 -3.859375 2.65625 -3.765625 L 3.875 -3.46875 C 4.195312 -3.394531 4.457031 -3.289062 4.65625 -3.15625 C 4.863281 -3.03125 5.019531 -2.882812 5.125 -2.71875 C 5.238281 -2.550781 5.316406 -2.375 5.359375 -2.1875 C 5.398438 -2.007812 5.421875 -1.832031 5.421875 -1.65625 C 5.421875 -1.332031 5.320312 -1.035156 5.125 -0.765625 C 4.9375 -0.503906 4.660156 -0.296875 4.296875 -0.140625 C 3.941406 0.015625 3.515625 0.09375 3.015625 0.09375 Z M 3.015625 0.09375 "/></g></g></g><g fill="#000000" fill-opacity="1"><g transform="translate(103.77965, 52.839893)"><g><path d="M 0.203125 -5.640625 L 0.203125 -6.390625 L 5.046875 -6.390625 L 5.046875 -5.640625 L 3.09375 -5.640625 L 3.09375 0 L 2.265625 0 L 2.265625 -5.640625 Z M 0.203125 -5.640625 "/></g></g></g><g fill="#000000" fill-opacity="1"><g transform="translate(110.351702, 52.839893)"><g/></g></g><g fill="#000000" fill-opacity="1"><g transform="translate(113.715805, 52.839893)"><g><path d="M 3.203125 -6.484375 C 3.648438 -6.484375 4.046875 -6.390625 4.390625 -6.203125 C 4.742188 -6.015625 5.023438 -5.765625 5.234375 -5.453125 C 5.441406 -5.140625 5.566406 -4.796875 5.609375 -4.421875 L 4.734375 -4.421875 C 4.691406 -4.671875 4.601562 -4.894531 4.46875 -5.09375 C 4.332031 -5.300781 4.15625 -5.460938 3.9375 -5.578125 C 3.726562 -5.703125 3.472656 -5.765625 3.171875 -5.765625 C 2.785156 -5.765625 2.457031 -5.675781 2.1875 -5.5 C 1.925781 -5.320312 1.726562 -5.039062 1.59375 -4.65625 C 1.457031 -4.28125 1.390625 -3.796875 1.390625 -3.203125 C 1.390625 -2.316406 1.539062 -1.664062 1.84375 -1.25 C 2.144531 -0.832031 2.585938 -0.625 3.171875 -0.625 C 3.472656 -0.625 3.726562 -0.6875 3.9375 -0.8125 C 4.15625 -0.9375 4.332031 -1.101562 4.46875 -1.3125 C 4.601562 -1.53125 4.691406 -1.765625 4.734375 -2.015625 L 5.609375 -2.015625 C 5.578125 -1.742188 5.503906 -1.476562 5.390625 -1.21875 C 5.273438 -0.96875 5.117188 -0.742188 4.921875 -0.546875 C 4.722656 -0.347656 4.476562 -0.191406 4.1875 -0.078125 C 3.90625 0.0351562 3.578125 0.09375 3.203125 0.09375 C 2.617188 0.09375 2.125 -0.0351562 1.71875 -0.296875 C 1.320312 -0.566406 1.015625 -0.945312 0.796875 -1.4375 C 0.585938 -1.925781 0.484375 -2.519531 0.484375 -3.21875 C 0.484375 -3.914062 0.585938 -4.503906 0.796875 -4.984375 C 1.003906 -5.472656 1.3125 -5.84375 1.71875 -6.09375 C 2.125 -6.351562 2.617188 -6.484375 3.203125 -6.484375 Z M 3.203125 -6.484375 "/></g></g></g><g fill="#000000" fill-opacity="1"><g transform="translate(121.1274, 52.839893)"><g><path d="M 0.359375 0 L 2.6875 -6.390625 L 3.609375 -6.390625 L 5.921875 0 L 5.078125 0 L 4.453125 -1.75 L 1.84375 -1.75 L 1.203125 0 Z M 2.046875 -2.5 L 4.234375 -2.5 L 3.140625 -5.578125 Z M 2.046875 -2.5 "/></g></g></g><g fill="#000000" fill-opacity="1"><g transform="translate(128.729001, 52.839893)"><g><path d="M 5.421875 0 L 4.546875 0 L 3.375 -2.75 L 1.65625 -2.75 L 1.65625 0 L 0.84375 0 L 0.84375 -6.390625 L 3.328125 -6.390625 C 3.785156 -6.390625 4.164062 -6.316406 4.46875 -6.171875 C 4.78125 -6.035156 5.015625 -5.835938 5.171875 -5.578125 C 5.328125 -5.316406 5.40625 -5.003906 5.40625 -4.640625 C 5.40625 -4.296875 5.34375 -4.007812 5.21875 -3.78125 C 5.09375 -3.550781 4.9375 -3.363281 4.75 -3.21875 C 4.5625 -3.082031 4.363281 -2.976562 4.15625 -2.90625 Z M 3.0625 -3.4375 C 3.539062 -3.4375 3.910156 -3.53125 4.171875 -3.71875 C 4.429688 -3.914062 4.5625 -4.207031 4.5625 -4.59375 C 4.5625 -4.976562 4.441406 -5.257812 4.203125 -5.4375 C 3.972656 -5.625 3.65625 -5.71875 3.25 -5.71875 L 1.65625 -5.71875 L 1.65625 -3.4375 Z M 3.0625 -3.4375 "/></g></g></g><g fill="#000000" fill-opacity="1"><g transform="translate(136.034552, 52.839893)"><g><path d="M 0.84375 0 L 0.84375 -6.390625 L 4.875 -6.390625 L 4.875 -5.671875 L 1.671875 -5.671875 L 1.671875 -3.59375 L 4.546875 -3.59375 L 4.546875 -2.875 L 1.65625 -2.875 L 1.65625 -0.734375 L 4.96875 -0.734375 L 4.96875 0 Z M 0.84375 0 "/></g></g></g><g fill="#000000" fill-opacity="1"><g transform="translate(142.845208, 52.839893)"><g><path d="M 0.84375 0 L 0.84375 -6.390625 L 4.875 -6.390625 L 4.875 -5.671875 L 1.671875 -5.671875 L 1.671875 -3.59375 L 4.546875 -3.59375 L 4.546875 -2.875 L 1.65625 -2.875 L 1.65625 -0.734375 L 4.96875 -0.734375 L 4.96875 0 Z M 0.84375 0 "/></g></g></g><g fill="#000000" fill-opacity="1"><g transform="translate(149.655864, 52.839893)"><g><path d="M 5.421875 0 L 4.546875 0 L 3.375 -2.75 L 1.65625 -2.75 L 1.65625 0 L 0.84375 0 L 0.84375 -6.390625 L 3.328125 -6.390625 C 3.785156 -6.390625 4.164062 -6.316406 4.46875 -6.171875 C 4.78125 -6.035156 5.015625 -5.835938 5.171875 -5.578125 C 5.328125 -5.316406 5.40625 -5.003906 5.40625 -4.640625 C 5.40625 -4.296875 5.34375 -4.007812 5.21875 -3.78125 C 5.09375 -3.550781 4.9375 -3.363281 4.75 -3.21875 C 4.5625 -3.082031 4.363281 -2.976562 4.15625 -2.90625 Z M 3.0625 -3.4375 C 3.539062 -3.4375 3.910156 -3.53125 4.171875 -3.71875 C 4.429688 -3.914062 4.5625 -4.207031 4.5625 -4.59375 C 4.5625 -4.976562 4.441406 -5.257812 4.203125 -5.4375 C 3.972656 -5.625 3.65625 -5.71875 3.25 -5.71875 L 1.65625 -5.71875 L 1.65625 -3.4375 Z M 3.0625 -3.4375 "/></g></g></g><g fill="#000000" fill-opacity="1"><g transform="translate(156.961416, 52.839893)"><g/></g></g><g fill="#000000" fill-opacity="1"><g transform="translate(160.325518, 52.839893)"><g><path d="M 3.203125 -6.484375 C 3.648438 -6.484375 4.046875 -6.390625 4.390625 -6.203125 C 4.742188 -6.015625 5.023438 -5.765625 5.234375 -5.453125 C 5.441406 -5.140625 5.566406 -4.796875 5.609375 -4.421875 L 4.734375 -4.421875 C 4.691406 -4.671875 4.601562 -4.894531 4.46875 -5.09375 C 4.332031 -5.300781 4.15625 -5.460938 3.9375 -5.578125 C 3.726562 -5.703125 3.472656 -5.765625 3.171875 -5.765625 C 2.785156 -5.765625 2.457031 -5.675781 2.1875 -5.5 C 1.925781 -5.320312 1.726562 -5.039062 1.59375 -4.65625 C 1.457031 -4.28125 1.390625 -3.796875 1.390625 -3.203125 C 1.390625 -2.316406 1.539062 -1.664062 1.84375 -1.25 C 2.144531 -0.832031 2.585938 -0.625 3.171875 -0.625 C 3.472656 -0.625 3.726562 -0.6875 3.9375 -0.8125 C 4.15625 -0.9375 4.332031 -1.101562 4.46875 -1.3125 C 4.601562 -1.53125 4.691406 -1.765625 4.734375 -2.015625 L 5.609375 -2.015625 C 5.578125 -1.742188 5.503906 -1.476562 5.390625 -1.21875 C 5.273438 -0.96875 5.117188 -0.742188 4.921875 -0.546875 C 4.722656 -0.347656 4.476562 -0.191406 4.1875 -0.078125 C 3.90625 0.0351562 3.578125 0.09375 3.203125 0.09375 C 2.617188 0.09375 2.125 -0.0351562 1.71875 -0.296875 C 1.320312 -0.566406 1.015625 -0.945312 0.796875 -1.4375 C 0.585938 -1.925781 0.484375 -2.519531 0.484375 -3.21875 C 0.484375 -3.914062 0.585938 -4.503906 0.796875 -4.984375 C 1.003906 -5.472656 1.3125 -5.84375 1.71875 -6.09375 C 2.125 -6.351562 2.617188 -6.484375 3.203125 -6.484375 Z M 3.203125 -6.484375 "/></g></g></g><g fill="#000000" fill-opacity="1"><g transform="translate(167.737113, 52.839893)"><g><path d="M 3.25 0.09375 C 2.6875 0.09375 2.195312 -0.0351562 1.78125 -0.296875 C 1.363281 -0.554688 1.039062 -0.925781 0.8125 -1.40625 C 0.59375 -1.894531 0.484375 -2.488281 0.484375 -3.1875 C 0.484375 -3.882812 0.59375 -4.476562 0.8125 -4.96875 C 1.039062 -5.457031 1.363281 -5.832031 1.78125 -6.09375 C 2.195312 -6.351562 2.6875 -6.484375 3.25 -6.484375 C 3.820312 -6.484375 4.3125 -6.351562 4.71875 -6.09375 C 5.132812 -5.832031 5.453125 -5.457031 5.671875 -4.96875 C 5.898438 -4.476562 6.015625 -3.882812 6.015625 -3.1875 C 6.015625 -2.488281 5.898438 -1.894531 5.671875 -1.40625 C 5.453125 -0.925781 5.132812 -0.554688 4.71875 -0.296875 C 4.3125 -0.0351562 3.820312 0.09375 3.25 0.09375 Z M 3.25 -0.625 C 3.644531 -0.625 3.976562 -0.710938 4.25 -0.890625 C 4.53125 -1.066406 4.742188 -1.34375 4.890625 -1.71875 C 5.035156 -2.101562 5.109375 -2.585938 5.109375 -3.171875 C 5.109375 -3.765625 5.035156 -4.253906 4.890625 -4.640625 C 4.742188 -5.023438 4.53125 -5.304688 4.25 -5.484375 C 3.976562 -5.671875 3.644531 -5.765625 3.25 -5.765625 C 2.863281 -5.765625 2.53125 -5.671875 2.25 -5.484375 C 1.96875 -5.304688 1.75 -5.023438 1.59375 -4.640625 C 1.445312 -4.253906 1.375 -3.765625 1.375 -3.171875 C 1.375 -2.585938 1.445312 -2.101562 1.59375 -1.71875 C 1.75 -1.34375 1.96875 -1.066406 2.25 -0.890625 C 2.53125 -0.710938 2.863281 -0.625 3.25 -0.625 Z M 3.25 -0.625 "/></g></g></g><g fill="#000000" fill-opacity="1"><g transform="translate(175.550815, 52.839893)"><g><path d="M 0.84375 0 L 0.84375 -6.390625 L 1.984375 -6.390625 L 3.90625 -1.109375 L 5.859375 -6.390625 L 6.984375 -6.390625 L 6.984375 0 L 6.140625 0 L 6.140625 -5.171875 L 4.296875 0 L 3.53125 0 L 1.6875 -5.125 L 1.6875 0 Z M 0.84375 0 "/></g></g></g><g fill="#000000" fill-opacity="1"><g transform="translate(184.70337, 52.839893)"><g><path d="M 0.84375 0 L 0.84375 -6.390625 L 3 -6.390625 C 3.457031 -6.390625 3.863281 -6.3125 4.21875 -6.15625 C 4.582031 -6.007812 4.863281 -5.785156 5.0625 -5.484375 C 5.269531 -5.179688 5.375 -4.8125 5.375 -4.375 C 5.375 -3.945312 5.28125 -3.582031 5.09375 -3.28125 C 4.90625 -2.976562 4.640625 -2.75 4.296875 -2.59375 C 3.960938 -2.4375 3.570312 -2.359375 3.125 -2.359375 L 1.6875 -2.359375 L 1.6875 0 Z M 1.6875 -3.0625 L 3.09375 -3.0625 C 3.539062 -3.0625 3.898438 -3.179688 4.171875 -3.421875 C 4.441406 -3.671875 4.578125 -4.003906 4.578125 -4.421875 C 4.578125 -4.847656 4.4375 -5.171875 4.15625 -5.390625 C 3.875 -5.609375 3.507812 -5.71875 3.0625 -5.71875 L 1.6875 -5.71875 Z M 1.6875 -3.0625 "/></g></g></g><g fill="#000000" fill-opacity="1"><g transform="translate(191.655426, 52.839893)"><g><path d="M 0.359375 0 L 2.6875 -6.390625 L 3.609375 -6.390625 L 5.921875 0 L 5.078125 0 L 4.453125 -1.75 L 1.84375 -1.75 L 1.203125 0 Z M 2.046875 -2.5 L 4.234375 -2.5 L 3.140625 -5.578125 Z M 2.046875 -2.5 "/></g></g></g><g fill="#000000" fill-opacity="1"><g transform="translate(199.257027, 52.839893)"><g><path d="M 5 -6.390625 L 5.828125 -6.390625 L 5.828125 0 L 5.09375 0 L 1.65625 -5.046875 L 1.65625 0 L 0.84375 0 L 0.84375 -6.390625 L 1.625 -6.390625 L 5 -1.421875 Z M 5 -6.390625 "/></g></g></g><g fill="#000000" fill-opacity="1"><g transform="translate(207.247466, 52.839893)"><g><path d="M 5.265625 -6.390625 L 3.09375 -2.71875 L 3.09375 0 L 2.28125 0 L 2.28125 -2.71875 L 0.109375 -6.390625 L 1 -6.390625 L 2.703125 -3.453125 L 4.375 -6.390625 Z M 5.265625 -6.390625 "/></g></g></g></svg>