<svg xmlns="http://www.w3.org/2000/svg" xmlns:xlink="http://www.w3.org/1999/xlink" width="320" zoomAndPan="magnify" viewBox="0 0 240 98.999996" height="132" preserveAspectRatio="xMidYMid meet" version="1.0"><defs><g/><clipPath id="3d46826624"><path d="M 3.292969 41.476562 L 236.542969 41.476562 L 236.542969 54.976562 L 3.292969 54.976562 Z M 3.292969 41.476562 " clip-rule="nonzero"/></clipPath></defs><g fill="#d1d5db" fill-opacity="1"><g transform="translate(14.30123, 82.25514)"><g><path d="M 7.6875 -67.3125 L 16.34375 -67.3125 L 16.34375 -37.984375 L 52.40625 -37.984375 L 52.40625 -67.3125 L 61.0625 -67.3125 L 61.0625 0 L 52.40625 0 L 52.40625 -29.8125 L 16.34375 -29.8125 L 16.34375 0 L 7.6875 0 Z M 7.6875 -67.3125 "/></g></g></g><g fill="#d1d5db" fill-opacity="1"><g transform="translate(78.922795, 82.25514)"><g><path d="M 39.4375 1.921875 C 34.363281 1.921875 29.679688 1.039062 25.390625 -0.71875 C 21.097656 -2.476562 17.394531 -4.945312 14.28125 -8.125 C 11.164062 -11.300781 8.726562 -15.050781 6.96875 -19.375 C 5.207031 -23.707031 4.328125 -28.46875 4.328125 -33.65625 C 4.328125 -38.851562 5.207031 -43.613281 6.96875 -47.9375 C 8.726562 -52.269531 11.164062 -56.019531 14.28125 -59.1875 C 17.394531 -62.363281 21.097656 -64.832031 25.390625 -66.59375 C 29.679688 -68.363281 34.363281 -69.25 39.4375 -69.25 C 42.832031 -69.25 45.90625 -68.894531 48.65625 -68.1875 C 51.414062 -67.476562 53.898438 -66.546875 56.109375 -65.390625 C 58.328125 -64.242188 60.269531 -62.929688 61.9375 -61.453125 C 63.601562 -59.972656 65.046875 -58.46875 66.265625 -56.9375 C 69.148438 -53.34375 71.265625 -49.269531 72.609375 -44.71875 L 63.953125 -44.71875 C 62.734375 -47.726562 61.035156 -50.453125 58.859375 -52.890625 C 57.898438 -53.921875 56.8125 -54.914062 55.59375 -55.875 C 54.375 -56.832031 52.960938 -57.695312 51.359375 -58.46875 C 49.753906 -59.238281 47.957031 -59.863281 45.96875 -60.34375 C 43.976562 -60.820312 41.800781 -61.0625 39.4375 -61.0625 C 35.582031 -61.0625 32.035156 -60.40625 28.796875 -59.09375 C 25.566406 -57.78125 22.78125 -55.921875 20.4375 -53.515625 C 18.09375 -51.109375 16.265625 -48.222656 14.953125 -44.859375 C 13.640625 -41.492188 12.984375 -37.757812 12.984375 -33.65625 C 12.984375 -29.550781 13.640625 -25.816406 14.953125 -22.453125 C 16.265625 -19.085938 18.09375 -16.203125 20.4375 -13.796875 C 22.78125 -11.390625 25.566406 -9.53125 28.796875 -8.21875 C 32.035156 -6.90625 35.582031 -6.25 39.4375 -6.25 C 41.863281 -6.25 44.101562 -6.503906 46.15625 -7.015625 C 48.207031 -7.535156 50.050781 -8.210938 51.6875 -9.046875 C 53.320312 -9.878906 54.765625 -10.820312 56.015625 -11.875 C 57.265625 -12.9375 58.375 -14.007812 59.34375 -15.09375 C 61.519531 -17.664062 63.21875 -20.648438 64.4375 -24.046875 L 73.09375 -24.046875 C 71.550781 -19.171875 69.304688 -14.84375 66.359375 -11.0625 C 65.078125 -9.394531 63.585938 -7.789062 61.890625 -6.25 C 60.191406 -4.707031 58.234375 -3.328125 56.015625 -2.109375 C 53.804688 -0.890625 51.320312 0.0820312 48.5625 0.8125 C 45.8125 1.550781 42.769531 1.921875 39.4375 1.921875 Z M 39.4375 1.921875 "/></g></g></g><g fill="#d1d5db" fill-opacity="1"><g transform="translate(151.718302, 82.25514)"><g><path d="M 39.4375 1.921875 C 34.363281 1.921875 29.679688 1.039062 25.390625 -0.71875 C 21.097656 -2.476562 17.394531 -4.945312 14.28125 -8.125 C 11.164062 -11.300781 8.726562 -15.050781 6.96875 -19.375 C 5.207031 -23.707031 4.328125 -28.46875 4.328125 -33.65625 C 4.328125 -38.851562 5.207031 -43.613281 6.96875 -47.9375 C 8.726562 -52.269531 11.164062 -56.019531 14.28125 -59.1875 C 17.394531 -62.363281 21.097656 -64.832031 25.390625 -66.59375 C 29.679688 -68.363281 34.363281 -69.25 39.4375 -69.25 C 42.832031 -69.25 45.90625 -68.894531 48.65625 -68.1875 C 51.414062 -67.476562 53.898438 -66.546875 56.109375 -65.390625 C 58.328125 -64.242188 60.269531 -62.929688 61.9375 -61.453125 C 63.601562 -59.972656 65.046875 -58.46875 66.265625 -56.9375 C 69.148438 -53.34375 71.265625 -49.269531 72.609375 -44.71875 L 63.953125 -44.71875 C 62.734375 -47.726562 61.035156 -50.453125 58.859375 -52.890625 C 57.898438 -53.921875 56.8125 -54.914062 55.59375 -55.875 C 54.375 -56.832031 52.960938 -57.695312 51.359375 -58.46875 C 49.753906 -59.238281 47.957031 -59.863281 45.96875 -60.34375 C 43.976562 -60.820312 41.800781 -61.0625 39.4375 -61.0625 C 35.582031 -61.0625 32.035156 -60.40625 28.796875 -59.09375 C 25.566406 -57.78125 22.78125 -55.921875 20.4375 -53.515625 C 18.09375 -51.109375 16.265625 -48.222656 14.953125 -44.859375 C 13.640625 -41.492188 12.984375 -37.757812 12.984375 -33.65625 C 12.984375 -29.550781 13.640625 -25.816406 14.953125 -22.453125 C 16.265625 -19.085938 18.09375 -16.203125 20.4375 -13.796875 C 22.78125 -11.390625 25.566406 -9.53125 28.796875 -8.21875 C 32.035156 -6.90625 35.582031 -6.25 39.4375 -6.25 C 41.863281 -6.25 44.101562 -6.503906 46.15625 -7.015625 C 48.207031 -7.535156 50.050781 -8.210938 51.6875 -9.046875 C 53.320312 -9.878906 54.765625 -10.820312 56.015625 -11.875 C 57.265625 -12.9375 58.375 -14.007812 59.34375 -15.09375 C 61.519531 -17.664062 63.21875 -20.648438 64.4375 -24.046875 L 73.09375 -24.046875 C 71.550781 -19.171875 69.304688 -14.84375 66.359375 -11.0625 C 65.078125 -9.394531 63.585938 -7.789062 61.890625 -6.25 C 60.191406 -4.707031 58.234375 -3.328125 56.015625 -2.109375 C 53.804688 -0.890625 51.320312 0.0820312 48.5625 0.8125 C 45.8125 1.550781 42.769531 1.921875 39.4375 1.921875 Z M 39.4375 1.921875 "/></g></g></g><g clip-path="url(#3d46826624)"><path fill="#d1d5db" d="M 3.316406 41.476562 L 236.515625 41.476562 L 236.515625 54.976562 L 3.316406 54.976562 L 3.316406 41.476562 " fill-opacity="1" fill-rule="nonzero"/></g><g fill="#4f46e5" fill-opacity="1"><g transform="translate(62.213974, 49.725624)"><g><path d="M 1.453125 -3.59375 L 0.0625 -3.59375 L 0.0625 -4.09375 L 3.390625 -4.09375 L 3.390625 -3.59375 L 1.984375 -3.59375 L 1.984375 0 L 1.453125 0 Z M 1.453125 -3.59375 "/></g></g></g><g fill="#4f46e5" fill-opacity="1"><g transform="translate(66.541019, 49.725624)"><g><path d="M 0.46875 -4.09375 L 1 -4.09375 L 1 -2.3125 L 3.1875 -2.3125 L 3.1875 -4.09375 L 3.703125 -4.09375 L 3.703125 0 L 3.1875 0 L 3.1875 -1.8125 L 1 -1.8125 L 1 0 L 0.46875 0 Z M 0.46875 -4.09375 "/></g></g></g><g fill="#4f46e5" fill-opacity="1"><g transform="translate(71.598987, 49.725624)"><g><path d="M 0.46875 -4.09375 L 3.328125 -4.09375 L 3.328125 -3.59375 L 1 -3.59375 L 1 -2.3125 L 2.890625 -2.3125 L 2.890625 -1.8125 L 1 -1.8125 L 1 -0.5 L 3.328125 -0.5 L 3.328125 0 L 0.46875 0 Z M 0.46875 -4.09375 "/></g></g></g><g fill="#4f46e5" fill-opacity="1"><g transform="translate(76.042982, 49.725624)"><g/></g></g><g fill="#4f46e5" fill-opacity="1"><g transform="translate(78.557347, 49.725624)"><g><path d="M 0.46875 -4.09375 L 1 -4.09375 L 1 -2.3125 L 3.1875 -2.3125 L 3.1875 -4.09375 L 3.703125 -4.09375 L 3.703125 0 L 3.1875 0 L 3.1875 -1.8125 L 1 -1.8125 L 1 0 L 0.46875 0 Z M 0.46875 -4.09375 "/></g></g></g><g fill="#4f46e5" fill-opacity="1"><g transform="translate(83.615314, 49.725624)"><g><path d="M 2.390625 0.109375 C 2.085938 0.109375 1.804688 0.0546875 1.546875 -0.046875 C 1.285156 -0.148438 1.054688 -0.296875 0.859375 -0.484375 C 0.671875 -0.679688 0.523438 -0.910156 0.421875 -1.171875 C 0.316406 -1.441406 0.265625 -1.734375 0.265625 -2.046875 C 0.265625 -2.359375 0.316406 -2.644531 0.421875 -2.90625 C 0.523438 -3.175781 0.671875 -3.40625 0.859375 -3.59375 C 1.054688 -3.789062 1.285156 -3.941406 1.546875 -4.046875 C 1.804688 -4.148438 2.085938 -4.203125 2.390625 -4.203125 C 2.703125 -4.203125 2.988281 -4.148438 3.25 -4.046875 C 3.507812 -3.941406 3.734375 -3.789062 3.921875 -3.59375 C 4.109375 -3.40625 4.253906 -3.175781 4.359375 -2.90625 C 4.472656 -2.644531 4.53125 -2.359375 4.53125 -2.046875 C 4.53125 -1.734375 4.472656 -1.441406 4.359375 -1.171875 C 4.253906 -0.910156 4.109375 -0.679688 3.921875 -0.484375 C 3.734375 -0.296875 3.507812 -0.148438 3.25 -0.046875 C 2.988281 0.0546875 2.703125 0.109375 2.390625 0.109375 Z M 2.390625 -0.375 C 2.628906 -0.375 2.847656 -0.414062 3.046875 -0.5 C 3.242188 -0.582031 3.410156 -0.695312 3.546875 -0.84375 C 3.691406 -0.988281 3.800781 -1.160156 3.875 -1.359375 C 3.957031 -1.566406 4 -1.796875 4 -2.046875 C 4 -2.296875 3.957031 -2.519531 3.875 -2.71875 C 3.800781 -2.925781 3.691406 -3.101562 3.546875 -3.25 C 3.410156 -3.394531 3.242188 -3.503906 3.046875 -3.578125 C 2.847656 -3.660156 2.628906 -3.703125 2.390625 -3.703125 C 2.160156 -3.703125 1.945312 -3.660156 1.75 -3.578125 C 1.550781 -3.503906 1.378906 -3.394531 1.234375 -3.25 C 1.097656 -3.101562 0.988281 -2.925781 0.90625 -2.71875 C 0.820312 -2.519531 0.78125 -2.296875 0.78125 -2.046875 C 0.78125 -1.796875 0.820312 -1.566406 0.90625 -1.359375 C 0.988281 -1.160156 1.097656 -0.988281 1.234375 -0.84375 C 1.378906 -0.695312 1.550781 -0.582031 1.75 -0.5 C 1.945312 -0.414062 2.160156 -0.375 2.390625 -0.375 Z M 2.390625 -0.375 "/></g></g></g><g fill="#4f46e5" fill-opacity="1"><g transform="translate(89.287256, 49.725624)"><g><path d="M 0.46875 -4.09375 L 1.234375 -4.09375 L 3.234375 -0.640625 L 3.25 -0.640625 L 3.25 -4.09375 L 3.765625 -4.09375 L 3.765625 0 L 3.015625 0 L 1 -3.453125 L 0.984375 -3.453125 L 1 -3.390625 L 1 0 L 0.46875 0 Z M 0.46875 -4.09375 "/></g></g></g><g fill="#4f46e5" fill-opacity="1"><g transform="translate(94.403694, 49.725624)"><g><path d="M 0.46875 -4.09375 L 3.328125 -4.09375 L 3.328125 -3.59375 L 1 -3.59375 L 1 -2.3125 L 2.890625 -2.3125 L 2.890625 -1.8125 L 1 -1.8125 L 1 -0.5 L 3.328125 -0.5 L 3.328125 0 L 0.46875 0 Z M 0.46875 -4.09375 "/></g></g></g><g fill="#4f46e5" fill-opacity="1"><g transform="translate(98.84769, 49.725624)"><g><path d="M 1.921875 0.109375 C 1.734375 0.109375 1.566406 0.0859375 1.421875 0.046875 C 1.273438 0.015625 1.144531 -0.0234375 1.03125 -0.078125 C 0.914062 -0.140625 0.816406 -0.207031 0.734375 -0.28125 C 0.648438 -0.363281 0.578125 -0.445312 0.515625 -0.53125 C 0.378906 -0.71875 0.285156 -0.929688 0.234375 -1.171875 L 0.765625 -1.171875 C 0.796875 -1.023438 0.863281 -0.890625 0.96875 -0.765625 C 1.050781 -0.671875 1.164062 -0.582031 1.3125 -0.5 C 1.46875 -0.414062 1.671875 -0.375 1.921875 -0.375 C 2.097656 -0.375 2.25 -0.390625 2.375 -0.421875 C 2.507812 -0.460938 2.617188 -0.515625 2.703125 -0.578125 C 2.785156 -0.648438 2.847656 -0.726562 2.890625 -0.8125 C 2.929688 -0.894531 2.953125 -0.984375 2.953125 -1.078125 C 2.953125 -1.203125 2.914062 -1.304688 2.84375 -1.390625 C 2.769531 -1.472656 2.671875 -1.539062 2.546875 -1.59375 C 2.429688 -1.65625 2.296875 -1.707031 2.140625 -1.75 C 1.992188 -1.789062 1.835938 -1.832031 1.671875 -1.875 C 1.515625 -1.925781 1.359375 -1.976562 1.203125 -2.03125 C 1.054688 -2.09375 0.921875 -2.164062 0.796875 -2.25 C 0.679688 -2.34375 0.585938 -2.453125 0.515625 -2.578125 C 0.441406 -2.703125 0.40625 -2.851562 0.40625 -3.03125 C 0.40625 -3.1875 0.4375 -3.332031 0.5 -3.46875 C 0.570312 -3.613281 0.671875 -3.738281 0.796875 -3.84375 C 0.921875 -3.957031 1.070312 -4.046875 1.25 -4.109375 C 1.4375 -4.171875 1.644531 -4.203125 1.875 -4.203125 C 2.039062 -4.203125 2.191406 -4.1875 2.328125 -4.15625 C 2.472656 -4.125 2.597656 -4.082031 2.703125 -4.03125 C 2.804688 -3.976562 2.894531 -3.914062 2.96875 -3.84375 C 3.050781 -3.769531 3.117188 -3.703125 3.171875 -3.640625 C 3.304688 -3.472656 3.398438 -3.28125 3.453125 -3.0625 L 2.921875 -3.0625 C 2.890625 -3.1875 2.828125 -3.296875 2.734375 -3.390625 C 2.660156 -3.460938 2.550781 -3.53125 2.40625 -3.59375 C 2.269531 -3.664062 2.09375 -3.703125 1.875 -3.703125 C 1.71875 -3.703125 1.582031 -3.679688 1.46875 -3.640625 C 1.351562 -3.609375 1.253906 -3.5625 1.171875 -3.5 C 1.085938 -3.4375 1.023438 -3.363281 0.984375 -3.28125 C 0.953125 -3.207031 0.9375 -3.125 0.9375 -3.03125 C 0.9375 -2.875 1 -2.75 1.125 -2.65625 C 1.25 -2.570312 1.40625 -2.492188 1.59375 -2.421875 C 1.78125 -2.359375 1.984375 -2.296875 2.203125 -2.234375 C 2.421875 -2.179688 2.625 -2.109375 2.8125 -2.015625 C 3.007812 -1.929688 3.171875 -1.8125 3.296875 -1.65625 C 3.421875 -1.507812 3.484375 -1.316406 3.484375 -1.078125 C 3.484375 -0.921875 3.445312 -0.769531 3.375 -0.625 C 3.300781 -0.476562 3.195312 -0.347656 3.0625 -0.234375 C 2.9375 -0.128906 2.773438 -0.046875 2.578125 0.015625 C 2.390625 0.078125 2.171875 0.109375 1.921875 0.109375 Z M 1.921875 0.109375 "/></g></g></g><g fill="#4f46e5" fill-opacity="1"><g transform="translate(103.467105, 49.725624)"><g><path d="M 1.453125 -3.59375 L 0.0625 -3.59375 L 0.0625 -4.09375 L 3.390625 -4.09375 L 3.390625 -3.59375 L 1.984375 -3.59375 L 1.984375 0 L 1.453125 0 Z M 1.453125 -3.59375 "/></g></g></g><g fill="#4f46e5" fill-opacity="1"><g transform="translate(107.794151, 49.725624)"><g/></g></g><g fill="#4f46e5" fill-opacity="1"><g transform="translate(110.308518, 49.725624)"><g><path d="M 2.390625 0.109375 C 2.085938 0.109375 1.804688 0.0546875 1.546875 -0.046875 C 1.285156 -0.148438 1.054688 -0.296875 0.859375 -0.484375 C 0.671875 -0.679688 0.523438 -0.910156 0.421875 -1.171875 C 0.316406 -1.441406 0.265625 -1.734375 0.265625 -2.046875 C 0.265625 -2.359375 0.316406 -2.644531 0.421875 -2.90625 C 0.523438 -3.175781 0.671875 -3.40625 0.859375 -3.59375 C 1.054688 -3.789062 1.285156 -3.941406 1.546875 -4.046875 C 1.804688 -4.148438 2.085938 -4.203125 2.390625 -4.203125 C 2.597656 -4.203125 2.785156 -4.179688 2.953125 -4.140625 C 3.117188 -4.097656 3.269531 -4.039062 3.40625 -3.96875 C 3.539062 -3.90625 3.660156 -3.828125 3.765625 -3.734375 C 3.867188 -3.640625 3.957031 -3.546875 4.03125 -3.453125 C 4.207031 -3.234375 4.332031 -2.988281 4.40625 -2.71875 L 3.890625 -2.71875 C 3.816406 -2.894531 3.710938 -3.0625 3.578125 -3.21875 C 3.515625 -3.28125 3.445312 -3.335938 3.375 -3.390625 C 3.300781 -3.453125 3.210938 -3.503906 3.109375 -3.546875 C 3.015625 -3.597656 2.90625 -3.632812 2.78125 -3.65625 C 2.664062 -3.6875 2.535156 -3.703125 2.390625 -3.703125 C 2.160156 -3.703125 1.945312 -3.660156 1.75 -3.578125 C 1.550781 -3.503906 1.378906 -3.394531 1.234375 -3.25 C 1.097656 -3.101562 0.988281 -2.925781 0.90625 -2.71875 C 0.820312 -2.519531 0.78125 -2.296875 0.78125 -2.046875 C 0.78125 -1.796875 0.820312 -1.566406 0.90625 -1.359375 C 0.988281 -1.160156 1.097656 -0.988281 1.234375 -0.84375 C 1.378906 -0.695312 1.550781 -0.582031 1.75 -0.5 C 1.945312 -0.414062 2.160156 -0.375 2.390625 -0.375 C 2.546875 -0.375 2.679688 -0.390625 2.796875 -0.421875 C 2.921875 -0.453125 3.035156 -0.492188 3.140625 -0.546875 C 3.242188 -0.597656 3.332031 -0.65625 3.40625 -0.71875 C 3.476562 -0.78125 3.546875 -0.847656 3.609375 -0.921875 C 3.734375 -1.078125 3.835938 -1.253906 3.921875 -1.453125 L 4.4375 -1.453125 C 4.34375 -1.160156 4.207031 -0.898438 4.03125 -0.671875 C 3.957031 -0.566406 3.867188 -0.46875 3.765625 -0.375 C 3.660156 -0.28125 3.539062 -0.195312 3.40625 -0.125 C 3.269531 -0.0507812 3.117188 0.00390625 2.953125 0.046875 C 2.785156 0.0859375 2.597656 0.109375 2.390625 0.109375 Z M 2.390625 0.109375 "/></g></g></g><g fill="#4f46e5" fill-opacity="1"><g transform="translate(115.863512, 49.725624)"><g><path d="M 1.171875 -4.09375 L 2.78125 -4.09375 L 3.828125 0 L 3.296875 0 L 2.984375 -1.203125 L 0.96875 -1.203125 L 0.640625 0 L 0.109375 0 Z M 2.859375 -1.6875 L 2.359375 -3.59375 L 1.578125 -3.59375 L 1.078125 -1.6875 Z M 2.859375 -1.6875 "/></g></g></g><g fill="#4f46e5" fill-opacity="1"><g transform="translate(120.687583, 49.725624)"><g><path d="M 0.46875 -4.09375 L 2.21875 -4.09375 C 2.457031 -4.09375 2.664062 -4.054688 2.84375 -3.984375 C 3.03125 -3.921875 3.1875 -3.832031 3.3125 -3.71875 C 3.4375 -3.601562 3.53125 -3.46875 3.59375 -3.3125 C 3.664062 -3.15625 3.703125 -2.988281 3.703125 -2.8125 C 3.703125 -2.5 3.609375 -2.234375 3.421875 -2.015625 C 3.242188 -1.796875 2.976562 -1.648438 2.625 -1.578125 L 3.6875 0 L 3.0625 0 L 2.078125 -1.515625 L 1 -1.515625 L 1 0 L 0.46875 0 Z M 2.21875 -2.015625 C 2.539062 -2.015625 2.78125 -2.085938 2.9375 -2.234375 C 3.101562 -2.378906 3.1875 -2.570312 3.1875 -2.8125 C 3.1875 -3.039062 3.101562 -3.226562 2.9375 -3.375 C 2.78125 -3.519531 2.539062 -3.59375 2.21875 -3.59375 L 1 -3.59375 L 1 -2.015625 Z M 2.21875 -2.015625 "/></g></g></g><g fill="#4f46e5" fill-opacity="1"><g transform="translate(125.570129, 49.725624)"><g><path d="M 0.46875 -4.09375 L 3.328125 -4.09375 L 3.328125 -3.59375 L 1 -3.59375 L 1 -2.3125 L 2.890625 -2.3125 L 2.890625 -1.8125 L 1 -1.8125 L 1 -0.5 L 3.328125 -0.5 L 3.328125 0 L 0.46875 0 Z M 0.46875 -4.09375 "/></g></g></g><g fill="#4f46e5" fill-opacity="1"><g transform="translate(130.014124, 49.725624)"><g><path d="M 0.46875 -4.09375 L 3.328125 -4.09375 L 3.328125 -3.59375 L 1 -3.59375 L 1 -2.3125 L 2.890625 -2.3125 L 2.890625 -1.8125 L 1 -1.8125 L 1 -0.5 L 3.328125 -0.5 L 3.328125 0 L 0.46875 0 Z M 0.46875 -4.09375 "/></g></g></g><g fill="#4f46e5" fill-opacity="1"><g transform="translate(134.45812, 49.725624)"><g><path d="M 0.46875 -4.09375 L 2.21875 -4.09375 C 2.457031 -4.09375 2.664062 -4.054688 2.84375 -3.984375 C 3.03125 -3.921875 3.1875 -3.832031 3.3125 -3.71875 C 3.4375 -3.601562 3.53125 -3.46875 3.59375 -3.3125 C 3.664062 -3.15625 3.703125 -2.988281 3.703125 -2.8125 C 3.703125 -2.5 3.609375 -2.234375 3.421875 -2.015625 C 3.242188 -1.796875 2.976562 -1.648438 2.625 -1.578125 L 3.6875 0 L 3.0625 0 L 2.078125 -1.515625 L 1 -1.515625 L 1 0 L 0.46875 0 Z M 2.21875 -2.015625 C 2.539062 -2.015625 2.78125 -2.085938 2.9375 -2.234375 C 3.101562 -2.378906 3.1875 -2.570312 3.1875 -2.8125 C 3.1875 -3.039062 3.101562 -3.226562 2.9375 -3.375 C 2.78125 -3.519531 2.539062 -3.59375 2.21875 -3.59375 L 1 -3.59375 L 1 -2.015625 Z M 2.21875 -2.015625 "/></g></g></g><g fill="#4f46e5" fill-opacity="1"><g transform="translate(139.340669, 49.725624)"><g/></g></g><g fill="#4f46e5" fill-opacity="1"><g transform="translate(141.855036, 49.725624)"><g><path d="M 2.390625 0.109375 C 2.085938 0.109375 1.804688 0.0546875 1.546875 -0.046875 C 1.285156 -0.148438 1.054688 -0.296875 0.859375 -0.484375 C 0.671875 -0.679688 0.523438 -0.910156 0.421875 -1.171875 C 0.316406 -1.441406 0.265625 -1.734375 0.265625 -2.046875 C 0.265625 -2.359375 0.316406 -2.644531 0.421875 -2.90625 C 0.523438 -3.175781 0.671875 -3.40625 0.859375 -3.59375 C 1.054688 -3.789062 1.285156 -3.941406 1.546875 -4.046875 C 1.804688 -4.148438 2.085938 -4.203125 2.390625 -4.203125 C 2.597656 -4.203125 2.785156 -4.179688 2.953125 -4.140625 C 3.117188 -4.097656 3.269531 -4.039062 3.40625 -3.96875 C 3.539062 -3.90625 3.660156 -3.828125 3.765625 -3.734375 C 3.867188 -3.640625 3.957031 -3.546875 4.03125 -3.453125 C 4.207031 -3.234375 4.332031 -2.988281 4.40625 -2.71875 L 3.890625 -2.71875 C 3.816406 -2.894531 3.710938 -3.0625 3.578125 -3.21875 C 3.515625 -3.28125 3.445312 -3.335938 3.375 -3.390625 C 3.300781 -3.453125 3.210938 -3.503906 3.109375 -3.546875 C 3.015625 -3.597656 2.90625 -3.632812 2.78125 -3.65625 C 2.664062 -3.6875 2.535156 -3.703125 2.390625 -3.703125 C 2.160156 -3.703125 1.945312 -3.660156 1.75 -3.578125 C 1.550781 -3.503906 1.378906 -3.394531 1.234375 -3.25 C 1.097656 -3.101562 0.988281 -2.925781 0.90625 -2.71875 C 0.820312 -2.519531 0.78125 -2.296875 0.78125 -2.046875 C 0.78125 -1.796875 0.820312 -1.566406 0.90625 -1.359375 C 0.988281 -1.160156 1.097656 -0.988281 1.234375 -0.84375 C 1.378906 -0.695312 1.550781 -0.582031 1.75 -0.5 C 1.945312 -0.414062 2.160156 -0.375 2.390625 -0.375 C 2.546875 -0.375 2.679688 -0.390625 2.796875 -0.421875 C 2.921875 -0.453125 3.035156 -0.492188 3.140625 -0.546875 C 3.242188 -0.597656 3.332031 -0.65625 3.40625 -0.71875 C 3.476562 -0.78125 3.546875 -0.847656 3.609375 -0.921875 C 3.734375 -1.078125 3.835938 -1.253906 3.921875 -1.453125 L 4.4375 -1.453125 C 4.34375 -1.160156 4.207031 -0.898438 4.03125 -0.671875 C 3.957031 -0.566406 3.867188 -0.46875 3.765625 -0.375 C 3.660156 -0.28125 3.539062 -0.195312 3.40625 -0.125 C 3.269531 -0.0507812 3.117188 0.00390625 2.953125 0.046875 C 2.785156 0.0859375 2.597656 0.109375 2.390625 0.109375 Z M 2.390625 0.109375 "/></g></g></g><g fill="#4f46e5" fill-opacity="1"><g transform="translate(147.41003, 49.725624)"><g><path d="M 2.390625 0.109375 C 2.085938 0.109375 1.804688 0.0546875 1.546875 -0.046875 C 1.285156 -0.148438 1.054688 -0.296875 0.859375 -0.484375 C 0.671875 -0.679688 0.523438 -0.910156 0.421875 -1.171875 C 0.316406 -1.441406 0.265625 -1.734375 0.265625 -2.046875 C 0.265625 -2.359375 0.316406 -2.644531 0.421875 -2.90625 C 0.523438 -3.175781 0.671875 -3.40625 0.859375 -3.59375 C 1.054688 -3.789062 1.285156 -3.941406 1.546875 -4.046875 C 1.804688 -4.148438 2.085938 -4.203125 2.390625 -4.203125 C 2.703125 -4.203125 2.988281 -4.148438 3.25 -4.046875 C 3.507812 -3.941406 3.734375 -3.789062 3.921875 -3.59375 C 4.109375 -3.40625 4.253906 -3.175781 4.359375 -2.90625 C 4.472656 -2.644531 4.53125 -2.359375 4.53125 -2.046875 C 4.53125 -1.734375 4.472656 -1.441406 4.359375 -1.171875 C 4.253906 -0.910156 4.109375 -0.679688 3.921875 -0.484375 C 3.734375 -0.296875 3.507812 -0.148438 3.25 -0.046875 C 2.988281 0.0546875 2.703125 0.109375 2.390625 0.109375 Z M 2.390625 -0.375 C 2.628906 -0.375 2.847656 -0.414062 3.046875 -0.5 C 3.242188 -0.582031 3.410156 -0.695312 3.546875 -0.84375 C 3.691406 -0.988281 3.800781 -1.160156 3.875 -1.359375 C 3.957031 -1.566406 4 -1.796875 4 -2.046875 C 4 -2.296875 3.957031 -2.519531 3.875 -2.71875 C 3.800781 -2.925781 3.691406 -3.101562 3.546875 -3.25 C 3.410156 -3.394531 3.242188 -3.503906 3.046875 -3.578125 C 2.847656 -3.660156 2.628906 -3.703125 2.390625 -3.703125 C 2.160156 -3.703125 1.945312 -3.660156 1.75 -3.578125 C 1.550781 -3.503906 1.378906 -3.394531 1.234375 -3.25 C 1.097656 -3.101562 0.988281 -2.925781 0.90625 -2.71875 C 0.820312 -2.519531 0.78125 -2.296875 0.78125 -2.046875 C 0.78125 -1.796875 0.820312 -1.566406 0.90625 -1.359375 C 0.988281 -1.160156 1.097656 -0.988281 1.234375 -0.84375 C 1.378906 -0.695312 1.550781 -0.582031 1.75 -0.5 C 1.945312 -0.414062 2.160156 -0.375 2.390625 -0.375 Z M 2.390625 -0.375 "/></g></g></g><g fill="#4f46e5" fill-opacity="1"><g transform="translate(153.081974, 49.725624)"><g><path d="M 0.46875 -4.09375 L 1.3125 -4.09375 L 2.546875 -1.453125 L 2.8125 -1.453125 L 4.03125 -4.09375 L 4.875 -4.09375 L 4.875 0 L 4.359375 0 L 4.359375 -3.5625 L 4.34375 -3.5625 L 3.15625 -1 L 2.1875 -1 L 1 -3.5625 L 0.984375 -3.5625 L 1 -3.5 L 1 0 L 0.46875 0 Z M 0.46875 -4.09375 "/></g></g></g><g fill="#4f46e5" fill-opacity="1"><g transform="translate(159.309413, 49.725624)"><g><path d="M 0.46875 -4.09375 L 2.1875 -4.09375 C 2.425781 -4.09375 2.640625 -4.054688 2.828125 -3.984375 C 3.015625 -3.921875 3.171875 -3.828125 3.296875 -3.703125 C 3.429688 -3.585938 3.53125 -3.445312 3.59375 -3.28125 C 3.664062 -3.113281 3.703125 -2.9375 3.703125 -2.75 C 3.703125 -2.550781 3.664062 -2.367188 3.59375 -2.203125 C 3.53125 -2.046875 3.429688 -1.90625 3.296875 -1.78125 C 3.171875 -1.664062 3.015625 -1.570312 2.828125 -1.5 C 2.640625 -1.4375 2.425781 -1.40625 2.1875 -1.40625 L 1 -1.40625 L 1 0 L 0.46875 0 Z M 2.1875 -1.90625 C 2.507812 -1.90625 2.753906 -1.984375 2.921875 -2.140625 C 3.097656 -2.296875 3.1875 -2.5 3.1875 -2.75 C 3.1875 -3 3.097656 -3.203125 2.921875 -3.359375 C 2.753906 -3.515625 2.507812 -3.59375 2.1875 -3.59375 L 1 -3.59375 L 1 -1.90625 Z M 2.1875 -1.90625 "/></g></g></g><g fill="#4f46e5" fill-opacity="1"><g transform="translate(164.104248, 49.725624)"><g><path d="M 1.171875 -4.09375 L 2.78125 -4.09375 L 3.828125 0 L 3.296875 0 L 2.984375 -1.203125 L 0.96875 -1.203125 L 0.640625 0 L 0.109375 0 Z M 2.859375 -1.6875 L 2.359375 -3.59375 L 1.578125 -3.59375 L 1.078125 -1.6875 Z M 2.859375 -1.6875 "/></g></g></g><g fill="#4f46e5" fill-opacity="1"><g transform="translate(168.928319, 49.725624)"><g><path d="M 0.46875 -4.09375 L 1.234375 -4.09375 L 3.234375 -0.640625 L 3.25 -0.640625 L 3.25 -4.09375 L 3.765625 -4.09375 L 3.765625 0 L 3.015625 0 L 1 -3.453125 L 0.984375 -3.453125 L 1 -3.390625 L 1 0 L 0.46875 0 Z M 0.46875 -4.09375 "/></g></g></g><g fill="#4f46e5" fill-opacity="1"><g transform="translate(174.044759, 49.725624)"><g><path d="M 1.609375 -1.484375 L 0.03125 -4.09375 L 0.640625 -4.09375 L 1.84375 -2.109375 L 1.90625 -2.109375 L 3.09375 -4.09375 L 3.703125 -4.09375 L 2.140625 -1.484375 L 2.140625 0 L 1.609375 0 Z M 1.609375 -1.484375 "/></g></g></g></svg>